<svg width="22.015686" height="19.231689" viewBox="0 0 22.0157 19.2317" fill="none" xmlns="http://www.w3.org/2000/svg" xmlns:xlink="http://www.w3.org/1999/xlink">
	<desc>
			Created with Pixso.
	</desc>
	<defs/>
	<path id="Vector" d="M2.31 7.09C2.77 7.45 3.29 7.71 3.86 7.85C4.42 7.99 5.01 8 5.58 7.89C6.15 7.77 6.69 7.54 7.16 7.2C7.63 6.85 8.02 6.41 8.31 5.9L11.01 1.04L13.71 5.9C13.99 6.41 14.38 6.85 14.85 7.2C15.32 7.54 15.86 7.77 16.43 7.89C17 8 17.59 7.98 18.16 7.85C18.72 7.71 19.25 7.45 19.7 7.08L21.01 6.04L19.25 14.81C19.18 15.2 19.01 15.56 18.78 15.87C18.54 16.18 18.24 16.43 17.89 16.6C15.75 17.67 13.4 18.23 11.01 18.23C8.62 18.23 6.27 17.67 4.13 16.6C3.78 16.43 3.48 16.18 3.24 15.87C3 15.56 2.84 15.2 2.76 14.81L1.01 6.04L2.31 7.09Z" stroke="#1D1E25" stroke-opacity="1.000000" stroke-width="2.000000" stroke-linejoin="round"/>
	<path id="Vector" d="M7.01 13.04C9.6 14.38 12.41 14.38 15.01 13.04" stroke="#1D1E25" stroke-opacity="1.000000" stroke-width="2.000000" stroke-linejoin="round" stroke-linecap="round"/>
</svg>
